<svg height='100px' width='100px'  fill="#000000" xmlns="http://www.w3.org/2000/svg" xmlns:xlink="http://www.w3.org/1999/xlink" version="1.1" x="0px" y="0px" viewBox="0 0 100 100" enable-background="new 0 0 100 100" xml:space="preserve"><g><path fill="none" stroke="#000000" stroke-width="4" stroke-miterlimit="10" d="M37.087,32.375   c-3.302-5.361-2.772-7.498-3.471-13.76C32.806,11.359,36.516,6.637,43.791,5.74c5-0.614,9.947-0.162,14.757,1.306   c7.233,2.207,10.168,6.974,8.566,14.362c-0.905,4.178-2.391,8.225-3.611,12.328c-0.345,1.152-0.696,2.304-0.959,3.164   c2.836-2.692,5.582-5.768,8.806-8.212c2.437-1.845,5.363-3.255,8.284-4.203c4.459-1.446,8.521,0.118,11.064,4.013   c3.775,5.785,5.229,12.314,4.703,19.107c-0.503,6.473-4.574,10.027-11.473,10.469c-4.886,0.308-9.795,0.252-14.691,0.365   c-0.309,0.004-0.612,0.063-0.828,0.087c3.223,1.668,6.681,3.022,9.621,5.103c2.78,1.969,5.36,4.443,7.415,7.158   c2.737,3.613,2.508,8.047-0.358,11.572c-4.866,5.986-11.262,9.642-18.873,10.819c-4.04,0.624-7.647-1.036-9.518-4.643   c-2.267-4.378-3.854-9.104-5.7-13.694c-0.57-1.42-1.018-2.889-1.574-4.485c-0.593,3.704-0.812,7.241-1.786,10.559   c-0.923,3.149-2.303,6.28-4.081,9.041c-2.765,4.302-7.476,5.638-12.216,3.704c-6.444-2.629-11.448-7.11-14.994-13.061   c-2.436-4.09-2.225-8.406,0.989-11.951c2.58-2.846,5.713-5.213,8.699-7.663c1.995-1.636,2.228-2.302,4.419-3.884   c-3.909,0.586-5.657,0.566-9.381,0.896c-2.211,0.193-4.508-0.027-6.708-0.412c-7.609-1.32-10.986-6.243-9.541-14.056   c0.964-5.226,3.145-10.016,6.442-14.194c4.253-5.396,9.461-6.342,15.774-2.703c1.455,0.666,4.921,1.973,6.74,3.445   C34.886,30.839,35.984,31.607,37.087,32.375z M62.936,50.822c0.031-7.254-5.611-13.041-12.803-13.127   c-7.082-0.088-13.063,5.796-13.117,12.899c-0.052,7.064,5.872,12.999,12.987,13.018C57.063,63.629,62.9,57.857,62.936,50.822z"></path></g></svg>